<?xml version="1.0" encoding="iso-8859-1"?>
<!-- Generator: Adobe Illustrator 19.0.0, SVG Export Plug-In . SVG Version: 6.00 Build 0)  -->
<svg version="1.1" id="Capa_1" xmlns="http://www.w3.org/2000/svg" xmlns:xlink="http://www.w3.org/1999/xlink" x="0px" y="0px"
	 viewBox="0 0 512 512" style="enable-background:new 0 0 512 512;" xml:space="preserve">
<circle style="fill:#F4A14E;" cx="255.999" cy="255.999" r="255.737"/>
<g>
	<path style="fill:#34ABE0;" d="M155.691,113.327l-61.147,34.248l-35.835,20.073L2.854,67.931
		c-7.85-14.008,1.023-34.446,20.094-49.488c3.518-2.787,7.39-5.386,11.566-7.724c26.774-15,56.022-13.705,65.323,2.891
		L155.691,113.327z"/>
	<path style="fill:#34ABE0;" d="M356.307,113.324l55.856-99.715c9.296-16.597,38.543-17.89,65.325-2.888
		c26.781,15.002,40.955,40.617,31.658,57.214L453.29,167.65"/>
</g>
<g>
	<path style="fill:#FFE461;" d="M427.505,153.747L341.18,497.208c-26.638,9.415-55.302,14.53-85.176,14.53
		c-29.874,0-58.548-5.125-85.197-14.53c-24.384-8.612-47.066-20.814-67.41-35.981l279.505-333.523L427.505,153.747z"/>
	<path style="fill:#FFE461;" d="M408.601,461.247c-42.599,31.722-95.395,50.49-152.597,50.49c-29.874,0-58.548-5.125-85.197-14.53
		L84.483,153.746l44.603-26.043L408.601,461.247z"/>
</g>
<path style="fill:#FCEBA7;" d="M363.696,407.658l-22.515,89.55c-26.638,9.415-55.302,14.53-85.176,14.53
	c-29.874,0-58.548-5.125-85.197-14.53l-22.505-89.55l107.692-128.516L363.696,407.658z"/>
<g>
	<path style="fill:#279FC9;" d="M94.544,147.575l-35.835,20.073L2.854,67.931c-7.85-14.008,1.023-34.446,20.094-49.488
		L94.544,147.575z"/>
	<path style="fill:#279FC9;" d="M417.456,147.575l35.835,20.073l55.855-99.717c7.85-14.008-1.023-34.446-20.094-49.488
		L417.456,147.575z"/>
</g>
<g>
	<path style="fill:#FFE461;" d="M158.092,129.673c-2.453,14.29-15.094,30.24-34.06,40.866
		c-18.267,10.229-37.672,12.881-51.127,8.278c-6.273-2.15-11.242-5.887-14.196-11.169c-9.3-16.597,4.875-42.212,31.659-57.212
		c26.774-15,56.022-13.705,65.323,2.891C158.405,118.17,159.115,123.776,158.092,129.673z"/>
	
		<ellipse transform="matrix(0.8724 0.4887 -0.4887 0.8724 120.2832 -179.9186)" style="fill:#FFE461;" cx="404.802" cy="140.461" rx="55.581" ry="34.443"/>
</g>
<g>
	<path style="fill:#FCEBA7;" d="M158.092,129.673c-2.453,14.29-15.094,30.24-34.06,40.866
		c-18.267,10.229-37.672,12.881-51.127,8.278c2.453-14.29,15.094-30.24,34.06-40.866
		C125.232,127.721,144.637,125.07,158.092,129.673z"/>
	<path style="fill:#FCEBA7;" d="M353.906,129.673c2.453,14.29,15.094,30.24,34.06,40.866c18.267,10.229,37.672,12.881,51.127,8.278
		c-2.453-14.29-15.094-30.24-34.06-40.866C386.765,127.721,367.361,125.07,353.906,129.673z"/>
</g>
<path style="fill:#5C5E70;" d="M379.176,478.776v1.386c-12.098,6.68-24.801,12.39-37.995,17.046
	c-26.638,9.415-55.302,14.53-85.176,14.53c-29.874,0-58.548-5.125-85.197-14.53c-13.194-4.655-25.887-10.365-37.974-17.035v-1.397
	c0-9.312,7.549-16.86,16.86-16.86h212.622C371.627,461.916,379.176,469.464,379.176,478.776z"/>
<g>
</g>
<g>
</g>
<g>
</g>
<g>
</g>
<g>
</g>
<g>
</g>
<g>
</g>
<g>
</g>
<g>
</g>
<g>
</g>
<g>
</g>
<g>
</g>
<g>
</g>
<g>
</g>
<g>
</g>
</svg>
